@startuml
title Diagrama de Clases Movies
class Usuario {
  +darElTitulo(): void
}

class MovieAPI {
  +buscaPeli(titulo: String): List<Movie>
}

class Movie {
  -id: int
  -titulo: String
  -fechaLanzamiento: String
  -descripcion: String
  -popularidad: float
  -votosPromedio: float
  -cuentaDeVotos: int
  -idioma: String
  -posterPath: String
}
class ClienteTMDB {
  -baseUrl: String
  -token: String
  +ClienteTMDB(token: String)

}
Usuario --> MovieAPI
MovieAPI --> Movie
MovieAPI --> ClienteTMDB

@enduml
